 <svg version="1.0" xmlns="http://www.w3.org/2000/svg" width="700.000000pt" height="530.000000pt" viewBox="0 0 700.000000 530.000000" preserveAspectRatio="xMidYMid meet">
<metadata>
Created by potrace 1.12, written by Peter Selinger 2001-2015
</metadata>
<g transform="translate(0.000000,530.000000) scale(0.100000,-0.100000)" fill="#000000" stroke="none">
<path d="M3470 5094 c-53 -23 -79 -53 -96 -111 -13 -43 -13 -59 -3 -94 18 -58
64 -101 132 -123 19 -6 22 -34 7 -80 -71 -222 -120 -326 -204 -426 -129 -156
-292 -230 -503 -230 -162 1 -351 63 -454 150 l-34 28 26 29 c37 40 49 66 49
110 0 159 -212 213 -293 75 -61 -104 24 -236 148 -230 l50 2 3 -88 c6 -173
-47 -327 -140 -411 -159 -143 -401 -152 -690 -26 -52 22 -55 28 -33 57 9 12
14 42 15 79 0 52 -4 65 -29 96 -73 89 -212 67 -257 -40 -19 -44 -17 -67 6
-118 29 -64 69 -85 153 -80 65 4 71 3 120 -31 151 -102 374 -172 552 -172 228
0 439 155 512 376 l25 72 61 -28 c110 -49 203 -65 382 -64 146 1 167 4 240 28
180 61 314 160 453 336 l20 24 89 -84 c107 -101 215 -169 349 -217 97 -35 103
-36 249 -36 134 -1 161 2 250 27 55 15 137 46 183 68 46 22 85 38 86 36 1 -1
11 -23 21 -47 63 -143 208 -254 409 -312 93 -27 415 -40 432 -18 6 8 26 61 44
119 18 58 43 137 55 175 l23 70 54 5 c69 6 105 30 130 88 19 41 20 52 9 92
-35 130 -186 161 -268 54 -43 -58 -29 -167 27 -207 20 -14 20 -14 -3 -34 -93
-85 -263 -153 -380 -153 -168 1 -306 65 -389 180 -63 86 -124 240 -130 324 -3
37 -1 40 28 46 74 16 114 71 114 159 0 57 -2 63 -39 100 -66 66 -156 66 -222
0 -72 -72 -59 -186 29 -239 23 -14 42 -30 42 -37 0 -23 -135 -134 -204 -168
-130 -64 -294 -90 -466 -74 -116 11 -170 28 -252 81 -125 81 -231 213 -335
417 -60 117 -65 146 -29 155 32 8 83 52 101 87 8 15 15 50 15 77 0 122 -127
205 -240 156z"></path>
<path d="M3755 3580 c-49 -9 -108 -22 -130 -28 -22 -6 -56 -15 -75 -20 -38
-10 -139 -44 -265 -89 -44 -16 -105 -34 -135 -41 -30 -7 -73 -17 -95 -22 -58
-14 -205 -37 -315 -49 -52 -6 -136 -15 -186 -21 -50 -5 -183 -10 -295 -10
-206 1 -337 14 -453 45 -48 13 -61 13 -68 3 -21 -30 -56 -116 -62 -154 l-7
-42 36 -6 c141 -27 576 -41 735 -25 396 41 591 90 862 218 46 21 106 49 133
61 28 12 73 32 100 45 77 35 243 101 315 125 36 13 67 24 69 26 10 9 -82 0
-164 -16z"></path>
<path d="M4270 3461 c-228 -75 -374 -121 -388 -121 -7 0 -20 -4 -30 -9 -16 -8
-58 -21 -247 -73 -199 -55 -440 -117 -575 -147 -52 -12 -113 -26 -135 -31 -22
-5 -103 -21 -180 -35 -77 -14 -162 -30 -190 -35 -225 -42 -637 -59 -774 -31
-34 7 -66 9 -70 6 -12 -12 -7 -193 6 -206 15 -15 166 -38 247 -39 82 0 427 41
506 60 19 4 58 13 85 19 72 14 266 61 295 71 14 4 70 21 125 36 101 29 439
142 616 207 170 62 678 275 853 357 72 34 7 21 -144 -29z"></path>
<path d="M5435 3445 c-149 -13 -269 -28 -355 -45 -25 -5 -74 -14 -110 -21
-277 -51 -659 -174 -938 -300 -34 -16 -65 -29 -68 -29 -3 0 -21 -7 -40 -15
-77 -34 -108 -46 -294 -119 -107 -41 -233 -88 -279 -104 -46 -16 -79 -32 -75
-34 9 -5 406 15 524 26 231 22 437 51 585 82 367 77 764 118 1192 123 48 1 45
-6 88 181 14 63 33 142 41 176 23 97 24 94 -53 93 -38 -1 -135 -7 -218 -14z"></path>
<path d="M2920 2819 c-94 -26 -185 -100 -225 -186 -39 -81 -45 -131 -45 -380
l0 -243 -270 0 -271 0 3 245 3 245 28 22 c16 13 43 28 60 35 26 9 -16 11 -223
11 -140 0 -248 -2 -240 -5 61 -22 84 -40 101 -77 17 -38 19 -75 19 -514 0
-508 -8 -633 -45 -717 -24 -55 -68 -103 -121 -131 -19 -10 -33 -23 -31 -29 2
-5 45 -11 97 -13 88 -3 98 -1 157 28 88 44 141 113 174 230 8 29 15 145 18
320 l6 275 265 0 265 0 0 -232 c0 -219 -1 -233 -21 -260 -12 -16 -40 -35 -65
-43 -44 -15 -44 -15 89 -18 73 -1 190 -1 260 0 l127 3 -45 15 c-30 10 -52 26
-67 49 l-23 34 0 502 c0 412 3 518 15 584 23 119 56 173 132 218 24 14 43 29
43 34 0 12 -125 10 -170 -2z"></path>
<path d="M5553 2815 c-108 -33 -191 -112 -234 -222 -21 -53 -23 -79 -28 -318
l-6 -260 -265 0 -265 0 -3 225 c-3 276 -2 280 93 317 24 9 -19 11 -225 12
-233 0 -252 -2 -215 -15 22 -8 50 -26 63 -40 l22 -26 0 -586 -1 -587 28 -21
c45 -34 122 -74 143 -74 24 0 44 30 66 96 14 39 18 107 23 334 l6 285 265 0
265 0 3 -229 2 -229 -25 -32 c-14 -19 -43 -40 -67 -48 -40 -15 -27 -15 217
-16 255 0 259 0 216 17 -86 33 -81 -4 -83 607 -1 478 1 547 16 604 26 97 66
148 148 190 15 8 25 18 22 23 -8 13 -134 8 -181 -7z"></path>
<path d="M3130 2563 c56 -21 83 -39 95 -64 13 -23 15 -109 15 -523 0 -353 -3
-502 -12 -520 -9 -22 -54 -50 -108 -69 -8 -3 104 -5 250 -5 265 0 265 0 215
17 -90 32 -85 2 -82 586 l2 510 97 -1 c86 -1 102 -4 143 -28 80 -47 121 -135
113 -245 -5 -70 -32 -135 -71 -172 -39 -38 -118 -69 -174 -69 -29 0 -53 -4
-53 -8 0 -5 12 -19 26 -33 26 -24 115 -151 268 -384 149 -226 223 -315 327
-392 105 -79 201 -117 335 -135 76 -10 107 -9 185 4 101 16 195 51 184 68 -3
5 -28 10 -55 10 -95 0 -239 50 -338 117 -111 75 -222 192 -377 397 -73 97
-196 230 -248 267 -41 30 -40 33 15 43 93 17 171 75 216 160 24 46 27 61 27
156 0 96 -2 109 -27 151 -37 63 -93 104 -199 145 -38 15 -94 18 -414 20 -203
2 -363 1 -355 -3z"></path>
<path d="M2230 1120 l0 -40 810 0 810 0 0 40 0 40 -810 0 -810 0 0 -40z"></path>
<path d="M5054 1146 c-3 -8 -4 -25 -2 -38 l3 -23 320 0 320 0 3 38 3 37 -321
0 c-268 0 -322 -2 -326 -14z"></path>
<path d="M2133 903 c-36 -7 -63 -50 -63 -100 0 -56 10 -74 77 -145 46 -49 54
-63 51 -90 -2 -26 -8 -34 -27 -36 -26 -4 -41 12 -41 46 0 18 -6 22 -30 22 -28
0 -30 -2 -30 -41 0 -53 42 -99 92 -99 51 0 96 32 104 75 12 64 -3 102 -67 171
-62 67 -76 108 -44 134 18 15 42 -1 56 -38 6 -17 15 -22 32 -20 19 3 22 9 21
41 -1 24 -9 46 -20 57 -20 20 -74 31 -111 23z"></path>
<path d="M2766 903 c-23 -6 -39 -20 -54 -50 -16 -29 -16 -306 -1 -336 39 -77
148 -76 184 0 14 29 16 61 13 184 -3 143 -4 149 -28 173 -25 25 -79 39 -114
29z m58 -69 c13 -12 16 -41 16 -147 0 -73 -4 -138 -9 -145 -4 -8 -19 -12 -32
-10 -24 3 -24 4 -27 148 -2 127 -1 146 15 157 21 16 18 16 37 -3z"></path>
<path d="M4277 903 c-18 -3 -35 -16 -48 -36 -16 -28 -19 -51 -19 -179 0 -161
7 -191 51 -214 45 -23 87 -18 120 16 29 29 30 31 27 122 l-3 93 -40 0 c-34 0
-40 -3 -43 -23 -2 -14 3 -29 13 -36 12 -9 15 -24 13 -61 -3 -48 -4 -50 -33
-50 l-30 0 -3 147 c-2 140 -2 148 18 158 29 16 50 -3 50 -46 0 -31 3 -34 30
-34 29 0 30 2 30 44 0 74 -51 111 -133 99z"></path>
<path d="M5345 903 c-30 -8 -53 -32 -65 -69 -16 -49 2 -102 50 -149 58 -57 83
-100 76 -131 -5 -20 -12 -25 -34 -22 -21 2 -28 9 -32 33 -4 25 -10 30 -35 30
-37 0 -44 -28 -20 -78 35 -74 150 -75 183 -2 29 63 8 117 -77 205 -52 54 -61
85 -33 113 17 17 24 18 36 8 8 -7 16 -22 18 -34 4 -29 61 -32 66 -3 4 19 -13
61 -34 83 -13 14 -71 23 -99 16z"></path>
<path d="M5594 903 c-92 -18 -88 -176 7 -244 38 -27 62 -74 54 -106 -4 -19
-11 -24 -33 -21 -21 2 -28 9 -32 33 -4 25 -10 30 -38 33 -28 3 -32 0 -32 -21
0 -99 97 -152 169 -91 63 52 50 133 -34 219 -63 65 -75 99 -46 128 16 17 23
18 35 8 8 -7 16 -22 18 -34 4 -28 52 -37 62 -11 12 31 -13 81 -48 98 -34 16
-42 17 -82 9z"></path>
<path d="M1660 693 c0 -115 4 -214 9 -221 4 -8 19 -12 32 -10 23 3 24 7 27 96
l3 93 37 -3 37 -3 3 -87 c2 -74 6 -88 21 -93 10 -3 26 -3 35 1 14 5 16 31 16
220 l0 214 -35 0 -34 0 -3 -87 -3 -88 -37 -3 -38 -3 0 90 0 91 -35 0 -35 0 0
-207z"></path>
<path d="M1947 893 c-4 -3 -7 -97 -7 -208 0 -213 3 -225 47 -225 l23 0 0 220
0 220 -28 0 c-16 0 -32 -3 -35 -7z"></path>
<path d="M2442 683 l3 -218 30 0 30 0 3 88 c3 85 3 87 27 87 32 0 42 -22 43
-99 1 -70 8 -84 43 -79 22 3 24 8 27 72 2 52 -2 78 -16 107 -19 39 -19 40 0
77 24 45 19 112 -9 151 -18 24 -27 26 -102 29 l-81 3 2 -218z m131 120 c13
-42 1 -82 -26 -92 -12 -5 -25 -7 -29 -4 -5 2 -8 33 -8 69 0 65 0 65 27 62 21
-2 29 -10 36 -35z"></path>
<path d="M2946 873 c3 -16 9 -39 14 -53 40 -115 60 -206 60 -266 0 -80 8 -97
41 -92 23 3 24 8 30 88 5 73 48 244 84 333 6 14 2 17 -28 17 -33 0 -35 -1 -50
-57 -8 -32 -18 -71 -22 -87 -5 -24 -8 -27 -19 -15 -7 8 -18 39 -25 69 -21 93
-19 90 -57 90 -32 0 -34 -2 -28 -27z"></path>
<path d="M3231 823 c-7 -43 -16 -98 -21 -123 -21 -107 -33 -209 -27 -224 4
-10 14 -16 23 -14 17 3 24 12 43 61 8 21 17 27 40 27 33 0 41 -9 50 -54 5 -24
13 -32 34 -34 36 -4 42 15 28 86 -6 31 -20 116 -31 187 -28 176 -23 165 -79
165 l-48 0 -12 -77z m83 -161 l7 -63 -28 3 c-28 3 -28 3 -24 68 2 36 8 74 14
85 10 19 11 19 17 -5 4 -14 10 -53 14 -88z"></path>
<path d="M3467 893 c-4 -3 -7 -97 -7 -208 0 -162 3 -205 14 -214 9 -7 42 -11
88 -9 l73 3 3 33 3 32 -55 0 -56 0 0 185 0 185 -28 0 c-16 0 -32 -3 -35 -7z"></path>
<path d="M3802 683 l3 -218 30 0 30 0 3 93 3 92 34 0 35 0 0 -82 c0 -94 7
-111 41 -106 l24 3 3 218 2 217 -35 0 -35 0 0 -90 0 -90 -35 0 -35 0 0 90 0
90 -35 0 -35 0 2 -217z"></path>
<path d="M4082 683 l3 -218 30 0 30 0 3 218 2 217 -35 0 -35 0 2 -217z"></path>
<path d="M4477 893 c-10 -9 -8 -406 2 -421 4 -8 19 -12 32 -10 23 3 24 7 29
93 l5 90 38 3 37 3 0 -90 c0 -79 2 -90 19 -96 10 -3 26 -3 35 1 14 5 16 31 16
220 l0 214 -35 0 -34 0 -3 -87 -3 -88 -35 0 -35 0 -3 88 -3 87 -28 0 c-15 0
-31 -3 -34 -7z"></path>
<path d="M4760 686 c0 -134 4 -217 10 -221 6 -3 19 -3 30 0 18 6 20 15 20 125
0 65 4 121 8 124 5 3 16 -23 25 -57 48 -192 52 -199 92 -193 19 3 20 11 23
220 l2 217 -27 -3 -28 -3 -5 -105 -5 -105 -21 70 c-12 39 -26 86 -31 105 -8
32 -12 35 -51 38 l-42 3 0 -215z"></path>
<path d="M5042 683 l3 -218 68 -3 c97 -5 119 2 115 36 -3 25 -6 27 -61 30
l-58 3 3 62 3 62 43 3 c39 3 42 5 42 33 0 28 -2 29 -45 29 l-45 0 0 60 0 60
48 0 c56 0 75 10 70 36 -3 17 -14 19 -96 22 l-92 3 2 -218z"></path>
</g>
</svg>